<svg width="162" height="36" viewBox="0 0 162 36" fill="none" xmlns="http://www.w3.org/2000/svg">
<path fill-rule="evenodd" clip-rule="evenodd" d="M0 8C0 3.58172 3.58172 0 8 0H25C29.4183 0 33 3.58172 33 8V23C33 27.4183 29.4183 31 25 31H15L5 36V30.4185C2.06817 29.2317 0 26.3574 0 23V8ZM24.9999 12C24.9999 9.79086 23.2091 8 20.9999 8H11.9999C9.7908 8 7.99994 9.79086 7.99994 12V18C7.99994 20.2091 9.7908 22 11.9999 22H13.9999L21.9999 26V21.874C23.7252 21.4299 24.9999 19.8638 24.9999 18V12Z" fill="url(#paint0_linear)"/>
<path d="M48.3117 21.5247H55.3436V24.1875H45V8.09999H48.3117V21.5247Z" fill="#3C425F"/>
<path d="M62.7671 24.4085C61.0156 24.4085 59.5879 23.8708 58.484 22.7953C57.3874 21.7199 56.8391 20.2872 56.8391 18.4972V18.1878C56.8391 16.9872 57.071 15.9154 57.5346 14.9725C57.9982 14.0223 58.6532 13.2931 59.4995 12.7848C60.3532 12.2692 61.3247 12.0114 62.4138 12.0114C64.0476 12.0114 65.3318 12.527 66.2665 13.5583C67.2085 14.5895 67.6795 16.0517 67.6795 17.9447V19.2485H60.0736C60.1766 20.0293 60.4857 20.6555 61.0009 21.1269C61.5234 21.5983 62.182 21.834 62.9768 21.834C64.2058 21.834 65.1662 21.3884 65.858 20.4971L67.4256 22.2539C66.9472 22.9316 66.2996 23.4619 65.4827 23.845C64.6658 24.2206 63.7606 24.4085 62.7671 24.4085ZM62.4028 14.5969C61.7699 14.5969 61.2547 14.8105 60.8573 15.2377C60.4673 15.6649 60.2171 16.2763 60.1067 17.0719H64.5444V16.8177C64.5297 16.1106 64.3383 15.5655 63.9703 15.1825C63.6024 14.7921 63.0799 14.5969 62.4028 14.5969Z" fill="#3C425F"/>
<path d="M73.5465 9.2933V12.2324H75.5887V14.5748H73.5465V20.5413C73.5465 20.9833 73.6311 21.3 73.8004 21.4915C73.9696 21.683 74.2935 21.7788 74.7718 21.7788C75.1251 21.7788 75.4378 21.753 75.7101 21.7014V24.1212C75.0846 24.3127 74.4406 24.4085 73.7783 24.4085C71.5411 24.4085 70.4004 23.2778 70.3562 21.0164V14.5748H68.612V12.2324H70.3562V9.2933H73.5465Z" fill="#3C425F"/>
<path d="M78.7732 13.0389L77.2719 12.1661C77.9048 11.1716 78.2323 10.1441 78.2544 9.08336V7.21606H80.7934V8.92868C80.7934 9.59162 80.6094 10.3098 80.2414 11.0833C79.8735 11.8567 79.3841 12.5086 78.7732 13.0389Z" fill="#3C425F"/>
<path d="M87.1792 20.8838C87.1792 20.4934 86.9842 20.1877 86.5942 19.9667C86.2115 19.7384 85.5933 19.5358 84.7396 19.359C81.8989 18.7624 80.4785 17.5543 80.4785 15.7349C80.4785 14.6742 80.9164 13.7903 81.7922 13.0831C82.6753 12.3686 83.8271 12.0114 85.2474 12.0114C86.7634 12.0114 87.9741 12.3686 88.8792 13.0831C89.7918 13.7976 90.2481 14.7258 90.2481 15.8675H87.0578C87.0578 15.4108 86.9106 15.0351 86.6162 14.7405C86.3219 14.4385 85.8619 14.2875 85.2364 14.2875C84.6991 14.2875 84.2833 14.409 83.989 14.6521C83.6946 14.8952 83.5474 15.2046 83.5474 15.5802C83.5474 15.9338 83.713 16.2211 84.0442 16.4421C84.3827 16.6557 84.9494 16.8435 85.7442 17.0056C86.539 17.1603 87.2087 17.337 87.7533 17.5359C89.4386 18.1547 90.2812 19.2264 90.2812 20.7512C90.2812 21.8414 89.8139 22.7253 88.8792 23.403C87.9446 24.0733 86.7377 24.4085 85.2584 24.4085C84.2576 24.4085 83.3671 24.2317 82.587 23.8781C81.8143 23.5172 81.2071 23.0273 80.7656 22.4086C80.324 21.7825 80.1032 21.1085 80.1032 20.3866H83.1279C83.1574 20.9538 83.3671 21.3884 83.7571 21.6904C84.1472 21.9924 84.6697 22.1434 85.3247 22.1434C85.9355 22.1434 86.3955 22.0292 86.7046 21.8009C87.021 21.5652 87.1792 21.2595 87.1792 20.8838Z" fill="#3C425F"/>
<path d="M106.972 19.9667C106.972 19.3406 106.751 18.8618 106.309 18.5304C105.868 18.1915 105.073 17.8379 103.925 17.4696C102.777 17.094 101.868 16.7257 101.198 16.3647C99.3732 15.3777 98.4607 14.0481 98.4607 12.376C98.4607 11.5068 98.7035 10.7334 99.1893 10.0557C99.6823 9.37064 100.385 8.8366 101.298 8.45356C102.218 8.07053 103.248 7.87901 104.389 7.87901C105.537 7.87901 106.56 8.08894 107.457 8.50881C108.355 8.92131 109.051 9.50691 109.544 10.2656C110.044 11.0243 110.295 11.8862 110.295 12.8511H106.983C106.983 12.1145 106.751 11.5436 106.287 11.1385C105.824 10.726 105.172 10.5197 104.333 10.5197C103.524 10.5197 102.895 10.6929 102.446 11.0391C101.997 11.3779 101.772 11.8272 101.772 12.387C101.772 12.91 102.034 13.3483 102.556 13.7019C103.086 14.0555 103.862 14.3869 104.885 14.6963C106.769 15.2635 108.142 15.967 109.003 16.8067C109.864 17.6464 110.295 18.6924 110.295 19.9446C110.295 21.3368 109.768 22.4307 108.716 23.2262C107.664 24.0144 106.247 24.4085 104.466 24.4085C103.23 24.4085 102.104 24.1838 101.088 23.7345C100.072 23.2778 99.296 22.6554 98.7587 21.8672C98.2289 21.079 97.9639 20.1656 97.9639 19.127H101.287C101.287 20.9022 102.346 21.7898 104.466 21.7898C105.253 21.7898 105.868 21.6315 106.309 21.3147C106.751 20.9906 106.972 20.5413 106.972 19.9667Z" fill="#3C425F"/>
<path d="M123.315 18.3204C123.315 20.1619 122.895 21.6388 122.056 22.7511C121.225 23.856 120.099 24.4085 118.678 24.4085C117.472 24.4085 116.496 23.9886 115.753 23.1489V28.7839H112.563V12.2324H115.521L115.632 13.4036C116.404 12.4754 117.413 12.0114 118.656 12.0114C120.128 12.0114 121.273 12.5565 122.09 13.6466C122.906 14.7368 123.315 16.2395 123.315 18.1547V18.3204ZM120.125 18.0884C120.125 16.9761 119.926 16.118 119.528 15.5139C119.138 14.9099 118.568 14.6079 117.817 14.6079C116.817 14.6079 116.128 14.991 115.753 15.757V20.6518C116.143 21.4399 116.839 21.834 117.839 21.834C119.363 21.834 120.125 20.5855 120.125 18.0884Z" fill="#3C425F"/>
<path d="M131.025 24.4085C129.274 24.4085 127.846 23.8708 126.742 22.7953C125.646 21.7199 125.097 20.2872 125.097 18.4972V18.1878C125.097 16.9872 125.329 15.9154 125.793 14.9725C126.257 14.0223 126.911 13.2931 127.758 12.7848C128.612 12.2692 129.583 12.0114 130.672 12.0114C132.306 12.0114 133.59 12.527 134.525 13.5583C135.467 14.5895 135.938 16.0517 135.938 17.9447V19.2485H128.332C128.435 20.0293 128.744 20.6555 129.259 21.1269C129.782 21.5983 130.44 21.834 131.235 21.834C132.464 21.834 133.425 21.3884 134.116 20.4971L135.684 22.2539C135.205 22.9316 134.558 23.4619 133.741 23.845C132.924 24.2206 132.019 24.4085 131.025 24.4085ZM130.661 14.5969C130.028 14.5969 129.513 14.8105 129.116 15.2377C128.726 15.6649 128.475 16.2763 128.365 17.0719H132.803V16.8177C132.788 16.1106 132.597 15.5655 132.229 15.1825C131.861 14.7921 131.338 14.5969 130.661 14.5969Z" fill="#3C425F"/>
<path d="M144.907 24.1875C144.76 23.9002 144.653 23.543 144.587 23.1157C143.814 23.9776 142.809 24.4085 141.573 24.4085C140.403 24.4085 139.431 24.0696 138.659 23.392C137.893 22.7143 137.511 21.8598 137.511 20.8286C137.511 19.5616 137.978 18.5893 138.913 17.9116C139.855 17.2339 141.212 16.8914 142.986 16.884H144.454V16.199C144.454 15.6465 144.311 15.2046 144.024 14.8731C143.744 14.5416 143.299 14.3759 142.688 14.3759C142.151 14.3759 141.727 14.5048 141.418 14.7626C141.117 15.0204 140.966 15.374 140.966 15.8233H137.776C137.776 15.1309 137.989 14.4901 138.416 13.9008C138.843 13.3115 139.446 12.8511 140.226 12.5196C141.006 12.1808 141.882 12.0114 142.853 12.0114C144.325 12.0114 145.492 12.3834 146.353 13.1273C147.221 13.8639 147.655 14.9026 147.655 16.2432V21.4252C147.663 22.5596 147.821 23.4177 148.13 23.9997V24.1875H144.907ZM142.268 21.9666C142.739 21.9666 143.174 21.8635 143.571 21.6572C143.968 21.4436 144.263 21.16 144.454 20.8065V18.7513H143.262C141.665 18.7513 140.815 19.3038 140.712 20.4087L140.701 20.5965C140.701 20.9943 140.841 21.3221 141.12 21.5799C141.4 21.8377 141.783 21.9666 142.268 21.9666Z" fill="#3C425F"/>
<path d="M154.671 19.3922L153.522 20.5413V24.1875H150.332V7.21606H153.522V16.6189L154.141 15.8233L157.198 12.2324H161.029L156.713 17.2155L161.404 24.1875H157.739L154.671 19.3922Z" fill="#3C425F"/>
<defs>
<linearGradient id="paint0_linear" x1="33" y1="0" x2="5.85209e-07" y2="36" gradientUnits="userSpaceOnUse">
<stop stop-color="#6F85EF"/>
<stop offset="1" stop-color="#0DE1D4"/>
</linearGradient>
</defs>
</svg>
